<svg xmlns="http://www.w3.org/2000/svg" width="32" height="32" viewBox="0 0 32 32">
  <g fill="none" fill-rule="evenodd">
    <path fill="#BBBEC4" d="M31.9997,16.0002 C31.9997,24.8362 24.8367,32.0002 15.9997,32.0002 C7.1637,32.0002 -0.0003,24.8362 -0.0003,16.0002 C-0.0003,7.1632 7.1637,0.0002 15.9997,0.0002 C24.8367,0.0002 31.9997,7.1632 31.9997,16.0002"/>
    <path fill="#FFF" d="M19.2575,16.8752 L19.6465,14.3412 L17.2155,14.3412 L17.2155,12.6972 C17.2155,12.0042 17.5555,11.3282 18.6445,11.3282 L19.7485,11.3282 L19.7485,9.1712 C19.7485,9.1712 18.7455,9.0002 17.7865,9.0002 C15.7845,9.0002 14.4765,10.2132 14.4765,12.4102 L14.4765,14.3412 L12.2505,14.3412 L12.2505,16.8752 L14.4765,16.8752 L14.4765,23.0002 L17.2155,23.0002 L17.2155,16.8752 L19.2575,16.8752 Z"/>
  </g>
</svg>
