<svg xmlns="http://www.w3.org/2000/svg" width="32" height="32" viewBox="0 0 32 32">
  <g fill="none" fill-rule="evenodd">
    <path fill="#BBBEC4" d="M31.9999,16.0002 C31.9999,24.8362 24.8369,32.0002 15.9999,32.0002 C7.1629,32.0002 -0.0001,24.8362 -0.0001,16.0002 C-0.0001,7.1632 7.1629,0.0002 15.9999,0.0002 C24.8369,0.0002 31.9999,7.1632 31.9999,16.0002"/>
    <path fill="#FFF" d="M16.8850195,9.00110158 C18.0045694,9.0039686 18.2755364,9.01438182 18.8859,9.0422 C19.6309,9.0762 20.1399,9.1942 20.5849,9.3672 C21.0459,9.5462 21.4369,9.7852 21.8249,10.1752 C22.2149,10.5632 22.4539,10.9542 22.6329,11.4152 C22.8059,11.8592 22.9239,12.3692 22.9579,13.1132 C22.9872636,13.7583364 22.9972347,14.0245719 22.9994081,15.3097306 L22.9994081,16.6906668 C22.9972347,17.9758095 22.9872636,18.2419273 22.9579,18.8862 C22.9239,19.6312 22.8059,20.1402 22.6329,20.5852 C22.4539,21.0462 22.2149,21.4362 21.8249,21.8252 C21.4369,22.2142 21.0459,22.4532 20.5849,22.6332 C20.1399,22.8062 19.6309,22.9242 18.8859,22.9582 C18.2416273,22.9875636 17.9755095,22.9975347 16.6903668,22.9997081 L15.3094332,22.9997081 C14.0242905,22.9975347 13.7581727,22.9875636 13.1139,22.9582 C12.3689,22.9242 11.8599,22.8062 11.4149,22.6332 C10.9539,22.4532 10.5639,22.2142 10.1749,21.8252 C9.7859,21.4362 9.5469,21.0462 9.3669,20.5852 C9.1939,20.1402 9.0759,19.6312 9.0419,18.8862 C9.01408182,18.2758364 9.0036686,18.0048694 9.00080158,16.8853195 L9.00080158,15.1150745 C9.0036686,13.9954975 9.01408182,13.7243818 9.0419,13.1132 C9.0759,12.3692 9.1939,11.8592 9.3669,11.4152 C9.5469,10.9542 9.7859,10.5632 10.1749,10.1752 C10.5639,9.7852 10.9539,9.5462 11.4149,9.3672 C11.8599,9.1942 12.3689,9.0762 13.1139,9.0422 C13.7242636,9.01438182 13.9952306,9.0039686 15.1147805,9.00110158 Z M16.4704177,10.2614111 L15.5293831,10.2614111 C14.0862802,10.2628612 13.8419,10.2722 13.1719,10.3022 C12.4889,10.3332 12.1179,10.4472 11.8719,10.5432 C11.5449,10.6702 11.3119,10.8212 11.0659,11.0662 C10.8219,11.3122 10.6699,11.5452 10.5429,11.8712 C10.4469,12.1182 10.3329,12.4882 10.3019,13.1712 C10.2719,13.8421091 10.2633876,14.0865719 10.2620878,15.5296823 L10.2620878,16.4706944 C10.2633876,17.9136545 10.2719,18.1572909 10.3019,18.8282 C10.3329,19.5112 10.4469,19.8822 10.5429,20.1282 C10.6699,20.4552 10.8219,20.6882 11.0659,20.9342 C11.3119,21.1782 11.5449,21.3302 11.8719,21.4572 C12.1179,21.5532 12.4889,21.6672 13.1719,21.6982 C13.8084,21.7267 14.0607781,21.7358074 15.321705,21.7377613 L16.6780975,21.7377613 C17.9390405,21.7358074 18.1915364,21.7267 18.8289,21.6982 C19.5109,21.6672 19.8819,21.5532 20.1289,21.4572 C20.4549,21.3302 20.6879,21.1782 20.9339,20.9342 C21.1789,20.6882 21.3299,20.4552 21.4569,20.1282 C21.5529,19.8822 21.6669,19.5112 21.6979,18.8282 C21.7264,18.1908364 21.7362533,17.9390864 21.7384106,16.6783468 L21.7384106,15.3220025 C21.7362533,14.0610595 21.7264,13.8085636 21.6979,13.1712 C21.6669,12.4882 21.5529,12.1182 21.4569,11.8712 C21.3299,11.5452 21.1789,11.3122 20.9339,11.0662 C20.6879,10.8212 20.4549,10.6702 20.1289,10.5432 C19.8819,10.4472 19.5109,10.3332 18.8289,10.3022 C18.1579909,10.2722 17.9135281,10.2628612 16.4704177,10.2614111 Z M15.9999,12.4052 C17.9849,12.4052 19.5949,14.0152 19.5949,16.0002 C19.5949,17.9852 17.9849,19.5952 15.9999,19.5952 C14.0149,19.5952 12.4049,17.9852 12.4049,16.0002 C12.4049,14.0152 14.0149,12.4052 15.9999,12.4052 Z M15.9999,13.6672 C14.7109,13.6672 13.6669,14.7112 13.6669,16.0002 C13.6669,17.2882 14.7109,18.3332 15.9999,18.3332 C17.2889,18.3332 18.3329,17.2882 18.3329,16.0002 C18.3329,14.7112 17.2889,13.6672 15.9999,13.6672 Z M19.7361,11.4228 C20.2001,11.4228 20.5771,11.7988 20.5771,12.2638 C20.5771,12.7278 20.2001,13.1038 19.7361,13.1038 C19.2721,13.1038 18.8961,12.7278 18.8961,12.2638 C18.8961,11.7988 19.2721,11.4228 19.7361,11.4228 Z"/>
  </g>
</svg>
