<svg xmlns="http://www.w3.org/2000/svg" width="32" height="32" viewBox="0 0 32 32">
  <g fill="none" fill-rule="evenodd">
    <path fill="#BBBEC4" d="M31.9999,16.0002 C31.9999,24.8362 24.8369,32.0002 15.9999,32.0002 C7.1629,32.0002 -0.0001,24.8362 -0.0001,16.0002 C-0.0001,7.1632 7.1629,0.0002 15.9999,0.0002 C24.8369,0.0002 31.9999,7.1632 31.9999,16.0002"/>
    <path fill="#FFF" d="M22.2607,21.215 L19.9007,21.215 L19.9007,16.805 C19.9007,14.154 16.7527,14.356 16.7527,16.805 L16.7527,21.215 L14.3927,21.215 L14.3927,12.55897 L16.7527,12.55897 L16.7527,13.948 C17.8517,11.913 22.2607,11.763 22.2607,15.897 L22.2607,21.215 Z M11.6387,11.562 C10.8777,11.562 10.2607,10.94 10.2607,10.173 C10.2607,9.406 10.8777,8.785 11.6387,8.785 C12.3987,8.785 13.0157,9.406 13.0157,10.173 C13.0157,10.94 12.3997,11.562 11.6387,11.562 L11.6387,11.562 Z M10.4587,21.215 L12.8187,21.215 L12.8187,12.559 L10.4587,12.559 L10.4587,21.215 Z"/>
  </g>
</svg>
