<svg xmlns="http://www.w3.org/2000/svg" width="32" height="32" viewBox="0 0 32 32">
  <g fill="none" fill-rule="evenodd">
    <path fill="#BBBEC4" d="M31.9999,16.0002 C31.9999,24.8362 24.8369,32.0002 15.9999,32.0002 C7.1629,32.0002 -0.0001,24.8362 -0.0001,16.0002 C-0.0001,7.1632 7.1629,0.0002 15.9999,0.0002 C24.8369,0.0002 31.9999,7.1632 31.9999,16.0002"/>
    <path fill="#FFF" d="M12.8818,22.4289 C12.8038,21.7479 12.7398,20.6999 12.9098,19.9559 C13.0668,19.2829 13.9168,15.6759 13.9168,15.6759 C13.9168,15.6759 13.6608,15.1579 13.6608,14.3999 C13.6608,13.2019 14.3568,12.3099 15.2208,12.3099 C15.9578,12.3099 16.3118,12.8629 16.3118,13.5219 C16.3118,14.2579 15.8438,15.3639 15.5958,16.3909 C15.3908,17.2489 16.0278,17.9499 16.8718,17.9499 C18.4028,17.9499 19.5788,16.3339 19.5788,14.0099 C19.5788,11.9489 18.0978,10.5089 15.9788,10.5089 C13.5278,10.5089 12.0878,12.3449 12.0878,14.2439 C12.0878,14.9809 12.3718,15.7749 12.7268,16.2069 C12.7968,16.2919 12.8038,16.3699 12.7828,16.4549 C12.7188,16.7249 12.5698,17.3129 12.5418,17.4329 C12.5068,17.5889 12.4138,17.6239 12.2508,17.5459 C11.1738,17.0429 10.5008,15.4769 10.5008,14.2079 C10.5008,11.4939 12.4708,8.9999 16.1918,8.9999 C19.1748,8.9999 21.4988,11.1259 21.4988,13.9749 C21.4988,16.9439 19.6278,19.3319 17.0348,19.3319 C16.1628,19.3319 15.3408,18.8789 15.0648,18.3399 C15.0648,18.3399 14.6328,19.9849 14.5268,20.3879 C14.3348,21.1389 13.8108,22.0749 13.4558,22.6489 C13.3218,22.8699 12.9898,23.4159 12.8818,22.4289"/>
  </g>
</svg>
