<svg xmlns="http://www.w3.org/2000/svg" width="32" height="32" viewBox="0 0 32 32">
  <g fill="none" fill-rule="evenodd">
    <path fill="#00AFF0" d="M32,16.0002 C32,24.8362 24.837,32.0002 16,32.0002 C7.163,32.0002 0,24.8362 0,16.0002 C0,7.1632 7.163,0.0002 16,0.0002 C24.837,0.0002 32,7.1632 32,16.0002"/>
    <path fill="#FFF" d="M14.8183,9.5109 C14.7953,9.4979 14.7723,9.4879 14.7493,9.4759 C14.7253,9.4809 14.7023,9.4859 14.6783,9.4899 L14.8183,9.5109 Z M9.5043,14.7559 C9.5003,14.7809 9.4973,14.8039 9.4923,14.8279 C9.5053,14.8509 9.5153,14.8729 9.5283,14.8949 L9.5043,14.7559 Z M22.4923,17.2399 C22.4973,17.2149 22.5003,17.1909 22.5053,17.1659 C22.4923,17.1439 22.4813,17.1209 22.4683,17.0989 L22.4923,17.2399 Z M17.0943,22.4389 C17.1173,22.4519 17.1393,22.4629 17.1623,22.4759 C17.1863,22.4719 17.2113,22.4689 17.2353,22.4639 L17.0943,22.4389 Z M16.0303,20.0159 C13.6813,20.0159 12.6303,18.8619 12.6303,17.9959 C12.6303,17.5519 12.9593,17.2409 13.4103,17.2409 C14.4153,17.2409 14.1553,18.6849 16.0303,18.6849 C16.9903,18.6849 17.5203,18.1629 17.5203,17.6299 C17.5203,17.3089 17.3623,16.9529 16.7303,16.7969 L14.6403,16.2759 C12.9593,15.8539 12.6533,14.9449 12.6533,14.0899 C12.6533,12.3149 14.3243,11.6489 15.8943,11.6489 C17.3393,11.6489 19.0443,12.4479 19.0443,13.5119 C19.0443,13.9679 18.6493,14.2339 18.1973,14.2339 C17.3393,14.2339 17.4983,13.0459 15.7693,13.0459 C14.9133,13.0459 14.4373,13.4349 14.4373,13.9899 C14.4373,14.5449 15.1153,14.7219 15.7033,14.8559 L17.2493,15.1989 C18.9423,15.5759 19.3723,16.5659 19.3723,17.4959 C19.3723,18.9399 18.2643,20.0159 16.0303,20.0159 L16.0303,20.0159 Z M22.5053,17.1659 C22.5003,17.1909 22.4973,17.2149 22.4923,17.2399 L22.4683,17.0989 C22.4813,17.1209 22.4923,17.1439 22.5053,17.1659 C22.5773,16.7729 22.6143,16.3699 22.6143,15.9679 C22.6143,15.0749 22.4403,14.2089 22.0943,13.3949 C21.7613,12.6069 21.2853,11.8999 20.6773,11.2929 C20.0713,10.6859 19.3633,10.2089 18.5773,9.8759 C17.7613,9.5319 16.8963,9.3569 16.0043,9.3569 C15.5833,9.3569 15.1623,9.3969 14.7523,9.4749 C14.7513,9.4759 14.7503,9.4759 14.7493,9.4759 C14.7723,9.4879 14.7953,9.4979 14.8183,9.5109 L14.6783,9.4899 C14.7023,9.4859 14.7253,9.4809 14.7493,9.4759 C14.1863,9.1769 13.5533,9.0169 12.9143,9.0169 C11.8683,9.0169 10.8853,9.4239 10.1463,10.1629 C9.4073,10.9029 9.0003,11.8849 9.0003,12.9309 C9.0003,13.5959 9.1713,14.2499 9.4923,14.8279 C9.4973,14.8039 9.5003,14.7809 9.5043,14.7559 L9.5283,14.8949 C9.5153,14.8729 9.5053,14.8509 9.4923,14.8279 C9.4273,15.2019 9.3923,15.5849 9.3923,15.9679 C9.3923,16.8609 9.5673,17.7259 9.9133,18.5409 C10.2453,19.3279 10.7213,20.0349 11.3293,20.6419 C11.9363,21.2489 12.6423,21.7269 13.4303,22.0589 C14.2453,22.4039 15.1113,22.5779 16.0043,22.5779 C16.3923,22.5779 16.7813,22.5429 17.1623,22.4759 C17.1393,22.4629 17.1173,22.4519 17.0943,22.4389 L17.2353,22.4639 C17.2113,22.4689 17.1863,22.4719 17.1623,22.4759 C17.7473,22.8069 18.4103,22.9839 19.0873,22.9839 C20.1313,22.9839 21.1143,22.5759 21.8533,21.8369 C22.5923,21.0989 23.0003,20.1149 23.0003,19.0699 C23.0003,18.4029 22.8283,17.7459 22.5053,17.1659 L22.5053,17.1659 Z"/>
  </g>
</svg>
