<svg xmlns="http://www.w3.org/2000/svg" width="32" height="32" viewBox="0 0 32 32">
  <g fill="none" fill-rule="evenodd">
    <path fill="#1DA1F2" d="M31.9997,16.0002 C31.9997,24.8362 24.8367,32.0002 15.9997,32.0002 C7.1637,32.0002 -0.0003,24.8362 -0.0003,16.0002 C-0.0003,7.1632 7.1637,0.0002 15.9997,0.0002 C24.8367,0.0002 31.9997,7.1632 31.9997,16.0002"/>
    <path fill="#FFF" d="M14.7165,22.0002 C19.3615,22.0002 21.9015,18.1522 21.9015,14.8152 C21.9015,14.7062 21.9015,14.5982 21.8935,14.4892 C22.3875,14.1322 22.8145,13.6892 23.1535,13.1832 C22.6935,13.3872 22.2035,13.5212 21.7025,13.5792 C22.2305,13.2642 22.6245,12.7682 22.8135,12.1832 C22.3185,12.4772 21.7755,12.6852 21.2095,12.7962 C20.2535,11.7792 18.6545,11.7292 17.6375,12.6872 C16.9825,13.3032 16.7035,14.2222 16.9065,15.0992 C14.8765,14.9972 12.9855,14.0382 11.7025,12.4612 C11.0325,13.6142 11.3755,15.0902 12.4855,15.8312 C12.0825,15.8192 11.6905,15.7112 11.3385,15.5152 L11.3385,15.5472 C11.3395,16.7492 12.1865,17.7842 13.3645,18.0222 C12.9925,18.1242 12.6035,18.1392 12.2245,18.0652 C12.5555,19.0942 13.5035,19.7992 14.5835,19.8192 C13.6895,20.5212 12.5845,20.9032 11.4475,20.9022 C11.2465,20.9012 11.0455,20.8902 10.8465,20.8652 C12.0015,21.6062 13.3445,22.0002 14.7165,21.9982"/>
  </g>
</svg>
