<svg xmlns="http://www.w3.org/2000/svg" width="32" height="32" viewBox="0 0 32 32">
  <g fill="none" fill-rule="evenodd">
    <path fill="#BBBEC4" d="M31.9997,15.9998 C31.9997,24.8368 24.8367,31.9998 15.9997,31.9998 C7.1637,31.9998 -0.0003,24.8368 -0.0003,15.9998 C-0.0003,7.1638 7.1637,-0.0002 15.9997,-0.0002 C24.8367,-0.0002 31.9997,7.1638 31.9997,15.9998"/>
    <path fill="#FFF" d="M14.4001,18.4001 L14.4001,13.6001 L18.5571,16.0001 L14.4001,18.4001 Z M23.6661,12.1491 C23.4821,11.4611 22.9391,10.9191 22.2521,10.7341 C21.0041,10.4001 16.0011,10.4001 16.0011,10.4001 C16.0011,10.4001 10.9971,10.4001 9.7491,10.7341 C9.0611,10.9191 8.5181,11.4611 8.3351,12.1491 C8.0001,13.3971 8.0001,16.0001 8.0001,16.0001 C8.0001,16.0001 8.0001,18.6031 8.3351,19.8511 C8.5181,20.5401 9.0611,21.0821 9.7491,21.2651 C10.9971,21.6001 16.0011,21.6001 16.0011,21.6001 C16.0011,21.6001 21.0041,21.6001 22.2521,21.2651 C22.9391,21.0821 23.4821,20.5401 23.6661,19.8511 C24.0001,18.6031 24.0001,16.0001 24.0001,16.0001 C24.0001,16.0001 24.0001,13.3971 23.6661,12.1491 L23.6661,12.1491 Z"/>
  </g>
</svg>
